{"glyphs":{"0":{"ha":688,"x_min":0,"x_max":0,"o":"m 613 775 b 360 1044 613 950 536 1044 l 326 1044 b 75 775 154 1044 75 950 l 75 258 b 329 -12 75 78 156 -12 l 361 -12 b 613 258 529 -12 613 79 z m 426 258 b 344 150 426 189 401 150 b 261 258 286 150 261 189 l 261 774 b 343 883 261 851 289 883 b 426 774 396 883 426 851 z "},"1":{"ha":444,"x_min":0,"x_max":0,"o":"m 182 775 l 182 0 l 364 0 l 364 1033 l 219 1033 b 35 918 200 949 168 918 l 35 775 z "},"2":{"ha":653,"x_min":0,"x_max":0,"o":"m 597 0 l 597 339 l 422 339 l 422 156 l 211 156 b 346 372 211 192 228 243 b 464 507 386 417 424 460 b 581 794 543 600 581 669 l 581 811 b 332 1043 581 957 517 1043 l 304 1043 b 79 824 131 1043 79 943 l 79 675 l 253 675 l 253 807 b 322 893 253 865 271 893 b 393 807 375 893 393 867 l 393 788 b 315 596 393 710 375 676 l 204 450 b 50 78 81 290 50 206 l 50 0 z "},"3":{"ha":635,"x_min":0,"x_max":0,"o":"m 239 722 l 239 811 b 306 893 239 865 256 893 b 374 811 357 893 374 865 l 374 704 b 308 635 374 651 358 635 l 207 635 l 207 474 l 319 474 b 383 407 369 474 383 457 l 383 233 b 313 147 383 178 363 147 b 238 233 260 147 238 178 l 238 375 l 63 375 l 63 218 b 299 -12 63 83 113 -12 l 328 -12 b 569 222 497 -12 569 82 l 569 424 b 467 569 569 522 511 557 b 556 738 510 586 556 636 l 556 824 b 314 1043 556 971 497 1043 l 297 1043 b 71 824 117 1043 71 953 l 71 722 z "},"4":{"ha":656,"x_min":0,"x_max":0,"o":"m 35 379 l 35 243 l 328 243 l 328 0 l 503 0 l 503 243 l 625 243 l 625 393 l 503 393 l 503 1038 l 329 1038 b 35 379 267 883 110 540 z m 328 393 l 172 393 b 328 750 225 510 282 640 z "},"5":{"ha":633,"x_min":0,"x_max":0,"o":"m 251 472 l 251 513 b 321 589 251 558 269 589 b 388 513 368 589 388 557 l 388 222 b 315 146 388 172 360 146 b 243 222 269 146 243 172 l 243 368 l 67 368 l 67 204 b 306 -12 67 78 128 -12 l 338 -12 b 574 222 506 -12 574 94 l 574 563 b 421 747 574 674 525 747 l 414 747 b 251 657 314 747 263 678 l 251 868 l 560 868 l 560 1033 l 78 1033 l 78 472 z "},"6":{"ha":656,"x_min":0,"x_max":0,"o":"m 426 660 b 258 572 329 660 274 594 l 258 801 b 324 885 258 860 279 885 b 389 801 369 885 389 861 l 389 738 l 572 738 l 572 818 b 339 1043 572 954 517 1043 l 306 1043 b 74 810 136 1043 74 940 l 74 231 b 319 -12 74 89 138 -12 l 353 -12 b 596 231 518 -12 596 94 l 596 468 b 433 660 596 575 546 660 z m 258 235 l 258 418 b 335 507 258 478 288 507 b 411 415 385 507 411 478 l 411 235 b 335 146 411 175 385 146 b 258 235 288 146 258 175 z "},"7":{"ha":604,"x_min":0,"x_max":0,"o":"m 58 1033 l 58 732 l 226 732 l 226 888 l 397 888 b 289 497 397 847 378 774 b 196 63 222 289 196 176 l 196 0 l 399 0 l 399 81 b 474 553 399 204 428 353 b 551 882 526 783 544 850 l 551 1033 z "},"8":{"ha":651,"x_min":0,"x_max":0,"o":"m 578 818 b 339 1043 578 957 515 1043 l 311 1043 b 72 818 126 1043 72 957 l 72 731 b 171 557 72 606 147 568 b 60 379 147 547 60 508 l 60 224 b 306 -12 60 89 114 -12 l 342 -12 b 592 224 526 -12 592 89 l 592 379 b 475 557 592 511 500 547 b 578 731 499 568 578 606 z m 404 721 b 326 629 404 661 381 629 b 247 722 271 629 247 661 l 247 806 b 325 894 247 868 272 894 b 404 806 381 894 404 868 z m 407 242 b 326 146 407 182 382 146 b 244 242 267 146 244 182 l 244 374 b 325 469 244 433 267 469 b 407 374 383 469 407 431 z "},"9":{"ha":656,"x_min":0,"x_max":0,"o":"m 397 796 l 397 613 b 321 524 397 554 368 524 b 244 615 271 524 244 553 l 244 796 b 319 885 244 856 269 885 b 397 796 369 885 397 857 z m 242 371 b 397 458 336 371 383 436 l 397 229 b 332 146 397 172 379 146 b 267 226 282 146 267 172 l 267 293 l 83 293 l 83 210 b 315 -12 83 78 126 -12 l 350 -12 b 582 221 531 -12 582 92 l 582 800 b 336 1043 582 946 517 1043 l 303 1043 b 60 800 114 1043 60 942 l 60 575 b 235 371 60 454 119 371 z "}," ":{"ha":208,"x_min":0,"x_max":0,"o":""},"!":{"ha":328,"x_min":0,"x_max":0,"o":"m 65 1033 l 122 286 l 203 286 l 263 1033 z m 260 214 l 65 214 l 65 0 l 260 0 z "},"\"":{"ha":524,"x_min":0,"x_max":0,"o":"m 458 1033 l 303 1033 l 303 694 l 458 694 z m 221 1033 l 65 1033 l 65 694 l 221 694 z "},"'":{"ha":290,"x_min":0,"x_max":0,"o":"m 225 1033 l 65 1033 l 65 694 l 225 694 z "},",":{"ha":317,"x_min":0,"x_max":0,"o":"m 203 -194 b 256 50 218 -162 256 -62 l 256 214 l 61 214 l 61 0 l 144 0 b 88 -194 136 -78 101 -167 z "},"-":{"ha":460,"x_min":0,"x_max":0,"o":"m 64 496 l 64 340 l 396 340 l 396 496 z "},".":{"ha":317,"x_min":0,"x_max":0,"o":"m 256 214 l 61 214 l 61 0 l 256 0 z "},"?":{"ha":597,"x_min":0,"x_max":0,"o":"m 350 286 l 350 343 b 407 490 350 413 360 432 l 467 564 b 539 757 517 626 539 679 l 539 826 b 310 1046 539 956 481 1046 l 272 1046 b 58 818 108 1046 58 949 l 58 676 l 228 676 l 228 808 b 292 892 228 868 247 892 b 358 808 340 892 358 869 l 358 768 b 318 633 358 711 354 682 l 268 567 b 206 376 215 497 206 467 l 206 286 z m 375 214 l 181 214 l 181 0 l 375 0 z "},"B":{"ha":678,"x_min":0,"x_max":0,"o":"m 76 0 l 390 0 b 619 226 544 0 619 86 l 619 378 b 508 565 619 503 561 546 b 604 740 556 583 604 625 l 604 832 b 390 1033 604 969 550 1033 l 76 1033 z m 340 894 b 425 801 403 894 425 869 l 425 719 b 342 621 425 651 403 621 l 258 621 l 258 894 z m 342 472 b 432 371 407 472 432 443 l 432 246 b 344 146 432 172 408 146 l 258 146 l 258 472 z "},"C":{"ha":667,"x_min":0,"x_max":0,"o":"m 339 150 b 258 263 281 150 258 189 l 258 772 b 339 883 258 846 281 883 b 421 772 400 883 421 844 l 421 656 l 600 656 l 600 781 b 350 1043 600 953 533 1043 l 317 1043 b 72 779 146 1043 72 944 l 72 253 b 322 -12 72 93 146 -12 l 356 -12 b 600 251 535 -12 600 108 l 600 429 l 421 429 l 421 261 b 339 150 421 192 400 150 z "},"D":{"ha":676,"x_min":0,"x_max":0,"o":"m 76 0 l 368 0 b 601 243 535 0 601 76 l 601 796 b 368 1033 601 967 535 1033 l 76 1033 z m 261 886 l 329 886 b 415 778 393 886 415 853 l 415 265 b 326 157 415 193 393 157 l 261 157 z "},"E":{"ha":586,"x_min":0,"x_max":0,"o":"m 76 1033 l 76 0 l 539 0 l 539 165 l 257 165 l 257 451 l 485 451 l 485 617 l 257 617 l 257 872 l 531 872 l 531 1033 z "},"F":{"ha":575,"x_min":0,"x_max":0,"o":"m 76 0 l 257 0 l 257 451 l 486 451 l 486 617 l 257 617 l 257 872 l 531 872 l 531 1033 l 76 1033 z "},"G":{"ha":675,"x_min":0,"x_max":0,"o":"m 282 -14 b 457 101 386 -14 439 65 b 490 0 472 61 488 13 l 603 0 l 603 611 l 332 611 l 332 453 l 432 453 l 432 260 b 344 147 432 193 408 147 b 258 261 282 147 258 190 l 258 778 b 338 883 258 847 285 883 b 417 778 394 883 417 847 l 417 719 l 594 719 l 594 788 b 351 1043 594 940 542 1043 l 322 1043 b 72 781 140 1043 72 939 l 72 229 b 272 -14 72 90 146 -14 z "},"H":{"ha":693,"x_min":0,"x_max":0,"o":"m 76 0 l 261 0 l 261 450 l 432 450 l 432 0 l 617 0 l 617 1033 l 432 1033 l 432 624 l 261 624 l 261 1033 l 76 1033 z "},"I":{"ha":338,"x_min":0,"x_max":0,"o":"m 261 1033 l 76 1033 l 76 0 l 261 0 z "},"J":{"ha":629,"x_min":0,"x_max":0,"o":"m 57 456 l 57 217 b 278 -8 57 53 136 -8 l 326 -8 b 554 229 479 -8 554 69 l 554 1033 l 368 1033 l 368 242 b 304 153 368 182 353 153 l 300 153 b 233 242 251 153 233 178 l 233 456 z "},"K":{"ha":660,"x_min":0,"x_max":0,"o":"m 260 0 l 260 494 l 457 0 l 646 0 l 429 551 l 626 1033 l 446 1033 l 260 574 l 260 1033 l 76 1033 l 76 0 z "},"L":{"ha":556,"x_min":0,"x_max":0,"o":"m 76 1033 l 76 0 l 514 0 l 514 169 l 261 169 l 261 1033 z "},"M":{"ha":875,"x_min":0,"x_max":0,"o":"m 583 501 b 643 817 611 640 628 731 b 638 458 640 701 638 606 l 638 0 l 799 0 l 799 1033 l 556 1033 l 485 665 b 440 397 461 544 453 475 b 394 665 428 475 418 544 l 324 1033 l 76 1033 l 76 0 l 233 0 l 233 458 b 229 817 233 606 232 701 b 289 492 244 728 260 642 l 386 0 l 483 0 z "},"N":{"ha":697,"x_min":0,"x_max":0,"o":"m 404 578 l 257 1033 l 76 1033 l 76 0 l 238 0 l 238 432 b 228 710 238 578 233 653 b 294 488 240 654 260 585 l 461 0 l 621 0 l 621 1033 l 461 1033 l 461 633 b 468 360 461 479 464 419 b 404 578 454 418 436 478 z "},"O":{"ha":690,"x_min":0,"x_max":0,"o":"m 618 768 b 358 1044 618 943 542 1044 l 331 1044 b 72 767 153 1044 72 943 l 72 268 b 332 -12 72 86 154 -12 l 360 -12 b 618 268 535 -12 618 86 z m 432 267 b 346 150 432 189 403 150 b 258 267 288 150 258 189 l 258 765 b 344 883 258 851 289 883 b 432 765 399 883 432 851 z "},"P":{"ha":649,"x_min":0,"x_max":0,"o":"m 372 417 b 596 643 518 417 596 486 l 596 813 b 372 1033 596 978 522 1033 l 76 1033 l 76 0 l 261 0 l 261 417 z m 261 886 l 326 886 b 413 778 390 886 413 861 l 413 681 b 326 571 413 594 390 571 l 261 571 z "},"Q":{"ha":690,"x_min":0,"x_max":0,"o":"m 275 -215 l 515 -215 l 422 -8 b 618 268 554 14 618 110 l 618 768 b 358 1044 618 943 542 1044 l 331 1044 b 72 767 153 1044 72 943 l 72 268 b 275 -8 72 107 136 11 z m 432 267 b 346 150 432 189 403 150 b 258 267 288 150 258 189 l 258 765 b 344 883 258 851 289 883 b 432 765 397 883 432 851 z "},"R":{"ha":672,"x_min":0,"x_max":0,"o":"m 258 894 l 335 894 b 419 797 397 894 419 868 l 419 708 b 335 606 419 642 397 606 l 258 606 z m 258 458 l 335 458 b 419 357 396 458 419 428 l 419 118 b 438 0 419 47 428 17 l 618 0 l 618 7 b 601 125 608 31 601 71 l 601 388 b 497 558 601 493 551 538 b 601 725 544 572 601 617 l 601 838 b 401 1033 601 974 535 1033 l 76 1033 l 76 0 l 258 0 z "},"S":{"ha":640,"x_min":0,"x_max":0,"o":"m 303 -11 l 333 -11 b 592 240 518 -11 592 99 l 592 269 b 458 539 592 392 551 454 l 325 661 b 249 803 268 713 249 743 l 249 813 b 328 896 249 871 274 896 b 403 808 378 896 403 871 l 403 708 l 581 708 l 581 844 b 342 1044 581 979 493 1044 l 313 1044 b 61 815 149 1044 61 971 l 61 786 b 188 531 61 672 106 604 l 322 410 b 400 257 378 360 400 325 l 400 246 b 318 146 400 181 371 146 b 235 231 265 146 235 174 l 235 372 l 54 372 l 54 197 b 303 -11 54 65 142 -11 z "},"T":{"ha":603,"x_min":0,"x_max":0,"o":"m 210 0 l 394 0 l 394 869 l 561 869 l 561 1033 l 42 1033 l 42 869 l 210 869 z "},"U":{"ha":682,"x_min":0,"x_max":0,"o":"m 356 -12 b 608 242 540 -12 608 94 l 608 1033 l 422 1033 l 422 244 b 340 149 422 183 400 149 b 260 244 283 149 260 185 l 260 1033 l 74 1033 l 74 242 b 325 -12 74 92 140 -12 z "},"V":{"ha":635,"x_min":0,"x_max":0,"o":"m 204 0 l 433 0 l 604 1033 l 428 1033 l 322 268 l 217 1033 l 31 1033 z "},"W":{"ha":996,"x_min":0,"x_max":0,"o":"m 539 357 l 593 0 l 792 0 l 964 1033 l 792 1033 l 725 560 b 688 257 707 428 692 311 b 650 560 683 311 668 433 l 582 1033 l 422 1033 l 356 560 b 318 257 338 431 322 311 b 281 560 313 310 299 428 l 214 1033 l 32 1033 l 204 0 l 403 0 l 458 357 b 499 644 479 497 493 589 b 539 357 503 589 517 497 z "},"X":{"ha":640,"x_min":0,"x_max":0,"o":"m 199 0 l 319 379 l 439 0 l 624 0 l 443 543 l 607 1033 l 425 1033 l 325 690 l 225 1033 l 36 1033 l 203 547 l 17 0 z "},"Y":{"ha":586,"x_min":0,"x_max":0,"o":"m 203 0 l 388 0 l 388 392 l 569 1033 l 394 1033 l 297 621 l 200 1033 l 17 1033 l 203 396 z "},"Z":{"ha":611,"x_min":0,"x_max":0,"o":"m 564 0 l 564 160 l 249 160 l 550 897 l 550 1033 l 68 1033 l 68 876 l 351 876 l 54 140 l 54 0 z "},"a":{"ha":619,"x_min":0,"x_max":0,"o":"m 57 169 b 214 -6 57 68 119 -6 l 218 -6 b 372 86 304 -6 354 57 b 456 0 379 36 403 0 l 597 0 l 597 154 l 576 154 b 536 196 543 154 536 165 l 536 582 b 306 772 536 704 478 772 l 283 772 b 67 582 113 772 67 690 l 67 510 l 226 510 l 226 561 b 294 638 226 611 244 638 l 297 638 b 368 563 351 638 368 613 l 368 557 b 342 513 368 532 363 524 l 186 440 b 57 256 96 399 57 356 z m 368 213 b 294 129 368 164 339 129 b 229 206 251 129 229 158 l 229 243 b 276 333 229 290 246 313 b 368 389 300 349 350 378 z "},"b":{"ha":642,"x_min":0,"x_max":0,"o":"m 74 1051 l 74 0 l 199 0 b 218 97 201 22 210 65 b 386 -7 236 63 286 -7 l 389 -7 b 576 199 504 -7 576 75 l 576 583 b 413 764 576 697 515 764 l 407 764 b 250 676 321 764 268 703 l 250 1051 z m 325 133 b 250 231 282 133 250 163 l 250 524 b 325 626 250 590 276 626 b 397 524 374 626 397 592 l 397 229 b 325 133 397 163 369 133 z "},"c":{"ha":614,"x_min":0,"x_max":0,"o":"m 324 -14 b 554 207 493 -14 554 86 l 554 310 l 385 310 l 385 222 b 313 129 385 165 365 129 b 243 222 263 129 243 167 l 243 540 b 314 631 243 601 263 631 b 385 540 368 631 385 603 l 385 479 l 554 479 l 554 554 b 325 772 554 692 499 772 l 303 772 b 65 540 133 772 65 686 l 65 207 b 301 -14 65 75 133 -14 z "},"d":{"ha":642,"x_min":0,"x_max":0,"o":"m 317 133 b 244 231 269 133 244 167 l 244 528 b 317 625 244 589 267 625 b 392 528 371 625 392 589 l 392 231 b 317 133 392 169 369 133 z m 392 1051 l 392 682 b 233 764 375 708 329 764 l 229 764 b 67 575 122 764 67 688 l 67 192 b 239 -7 67 71 132 -7 l 242 -7 b 392 86 331 -7 375 51 l 392 0 l 568 0 l 568 1051 z "},"e":{"ha":613,"x_min":0,"x_max":0,"o":"m 236 556 b 310 640 236 611 260 640 b 385 556 358 640 385 611 l 385 479 l 236 479 z m 551 204 l 551 279 l 382 279 l 382 213 b 310 129 382 164 360 129 b 236 214 256 129 236 165 l 236 357 l 551 357 l 551 549 b 324 772 551 707 464 772 l 296 772 b 65 554 143 772 65 693 l 65 204 b 292 -14 65 64 146 -14 l 317 -14 b 551 204 471 -14 551 61 z "},"f":{"ha":481,"x_min":0,"x_max":0,"o":"m 449 1051 l 303 1051 b 149 904 193 1051 149 1000 l 149 758 l 31 758 l 31 610 l 149 610 l 149 0 l 324 0 l 324 610 l 449 610 l 449 758 l 324 758 l 324 857 b 375 911 324 899 335 911 l 449 911 z "},"g":{"ha":646,"x_min":0,"x_max":0,"o":"m 318 132 b 244 229 267 132 244 171 l 244 526 b 315 624 244 590 267 624 b 393 526 365 624 393 589 l 393 231 b 318 132 393 171 367 132 z m 336 -274 b 572 -76 515 -274 572 -187 l 572 758 l 396 758 l 396 675 b 233 764 371 711 325 764 b 67 544 118 764 67 685 l 67 200 b 238 -6 67 71 131 -6 b 393 83 322 -6 374 49 l 393 -64 b 321 -139 393 -115 376 -139 l 315 -139 b 244 -67 258 -139 244 -115 l 244 -54 l 74 -54 l 74 -93 b 297 -274 74 -208 125 -274 z "},"h":{"ha":649,"x_min":0,"x_max":0,"o":"m 74 0 l 250 0 l 250 526 b 326 624 250 586 272 624 b 400 532 379 624 400 586 l 400 0 l 578 0 l 578 600 b 414 764 578 696 521 764 l 408 764 b 250 675 310 764 260 692 l 250 1051 l 74 1051 z "},"i":{"ha":324,"x_min":0,"x_max":0,"o":"m 250 1011 l 74 1011 l 74 835 l 250 835 z m 250 758 l 74 758 l 74 0 l 250 0 z "},"j":{"ha":325,"x_min":0,"x_max":0,"o":"m 251 1011 l 75 1011 l 75 835 l 251 835 z m -58 -104 l -58 -260 l 122 -260 b 251 -115 207 -260 251 -207 l 251 758 l 75 758 l 75 -56 b 31 -104 75 -90 65 -104 z "},"k":{"ha":632,"x_min":0,"x_max":0,"o":"m 250 0 l 250 372 l 435 0 l 626 0 l 415 421 l 610 758 l 421 758 l 250 451 l 250 1051 l 74 1051 l 74 0 z "},"l":{"ha":324,"x_min":0,"x_max":0,"o":"m 250 1051 l 74 1051 l 74 0 l 250 0 z "},"m":{"ha":968,"x_min":0,"x_max":0,"o":"m 250 0 l 250 526 b 324 624 250 586 271 624 b 396 532 375 624 396 586 l 396 0 l 572 0 l 572 532 b 646 624 572 588 597 624 b 719 532 696 624 719 588 l 719 0 l 896 0 l 896 600 b 736 764 896 696 843 764 l 731 764 b 558 675 636 764 579 701 b 411 764 536 729 486 764 l 406 764 b 247 671 308 764 258 690 l 247 758 l 74 758 l 74 0 z "},"n":{"ha":649,"x_min":0,"x_max":0,"o":"m 74 0 l 250 0 l 250 526 b 326 624 250 586 272 624 b 400 532 379 624 400 586 l 400 0 l 578 0 l 578 600 b 414 765 578 696 521 765 l 408 765 b 247 671 310 765 258 690 l 247 758 l 74 758 z "},"o":{"ha":638,"x_min":0,"x_max":0,"o":"m 304 -14 l 333 -14 b 572 215 490 -14 572 78 l 572 543 b 333 772 572 688 490 772 l 304 772 b 65 543 138 772 65 685 l 65 215 b 304 -14 65 78 135 -14 z m 318 129 b 243 222 267 129 243 164 l 243 536 b 318 629 243 600 268 629 b 394 536 369 629 394 599 l 394 222 b 318 129 394 167 372 129 z "},"p":{"ha":642,"x_min":0,"x_max":0,"o":"m 325 133 b 250 233 276 133 250 165 l 250 528 b 325 625 250 586 272 625 b 397 528 378 625 397 588 l 397 231 b 325 133 397 168 376 133 z m 74 758 l 74 -260 l 250 -260 l 250 67 b 404 -6 268 39 317 -6 l 408 -6 b 576 197 504 -6 576 71 l 576 579 b 413 764 576 688 525 764 l 411 764 b 250 675 317 764 269 704 l 250 758 z "},"q":{"ha":642,"x_min":0,"x_max":0,"o":"m 450 758 b 421 660 444 726 432 689 b 246 764 403 689 360 764 l 242 764 b 67 561 121 764 67 671 l 67 192 b 228 -4 67 83 129 -4 l 231 -4 b 392 86 318 -4 374 54 l 392 -260 l 568 -260 l 568 758 z m 317 133 b 244 233 269 133 244 163 l 244 525 b 317 625 244 588 264 625 b 392 525 365 625 392 588 l 392 233 b 317 133 392 168 364 133 z "},"r":{"ha":579,"x_min":0,"x_max":0,"o":"m 250 540 b 308 622 250 596 267 622 b 365 540 350 622 365 599 l 365 399 l 533 399 l 533 603 b 399 764 533 699 497 764 l 393 764 b 247 672 300 764 257 688 l 247 758 l 74 758 l 74 0 l 250 0 z "},"s":{"ha":565,"x_min":0,"x_max":0,"o":"m 265 -14 l 293 -14 b 521 186 463 -14 521 79 l 521 193 b 403 407 521 294 486 349 l 271 501 b 219 585 239 525 219 544 b 282 643 219 622 240 643 b 353 572 332 643 353 626 l 353 524 l 511 524 l 511 594 b 297 771 511 706 463 771 l 271 771 b 51 581 113 771 51 696 l 51 574 b 175 363 51 474 96 415 l 289 285 b 349 192 333 256 349 236 l 349 190 b 279 119 349 149 329 119 b 208 196 228 119 208 147 l 208 267 l 44 267 l 44 172 b 265 -14 44 71 96 -14 z "},"t":{"ha":490,"x_min":0,"x_max":0,"o":"m 449 0 l 449 149 l 358 149 b 321 189 328 149 321 160 l 321 610 l 449 610 l 449 758 l 321 758 l 321 1006 l 146 1006 l 146 758 l 31 758 l 31 610 l 146 610 l 146 115 b 264 0 146 40 189 0 z "},"u":{"ha":640,"x_min":0,"x_max":0,"o":"m 567 758 l 390 758 l 390 219 b 318 131 390 161 364 131 b 250 214 275 131 250 161 l 250 758 l 72 758 l 72 150 b 226 -6 72 64 132 -6 l 235 -6 b 394 89 308 -6 374 50 l 394 0 l 567 0 z "},"v":{"ha":574,"x_min":0,"x_max":0,"o":"m 185 0 l 394 0 l 551 758 l 382 758 l 290 215 l 200 758 l 22 758 z "},"w":{"ha":889,"x_min":0,"x_max":0,"o":"m 446 468 b 489 263 453 431 464 379 l 546 0 l 714 0 l 867 758 l 707 758 l 660 483 b 624 257 639 356 631 311 b 582 485 615 311 607 361 l 525 758 l 378 758 l 324 485 b 279 257 297 361 288 311 b 243 483 272 311 264 358 l 197 758 l 22 758 l 182 0 l 347 0 l 404 263 b 446 468 429 379 440 431 z "},"x":{"ha":572,"x_min":0,"x_max":0,"o":"m 181 0 l 285 263 l 388 0 l 563 0 l 399 394 l 553 758 l 382 758 l 289 513 l 196 758 l 13 758 l 175 396 l 10 0 z "},"y":{"ha":579,"x_min":0,"x_max":0,"o":"m 49 -260 l 221 -260 b 363 -132 307 -260 344 -215 l 556 758 l 385 758 l 294 238 l 201 758 l 22 758 l 189 47 b 201 -58 203 -11 206 -29 l 199 -76 b 149 -111 194 -101 183 -111 l 49 -111 z "},"z":{"ha":535,"x_min":0,"x_max":0,"o":"m 488 0 l 488 147 l 239 147 l 478 633 l 478 758 l 61 758 l 61 614 l 282 614 l 49 132 l 49 0 z "},"‘":{"ha":318,"x_min":0,"x_max":0,"o":"m 111 1033 b 61 781 94 990 61 896 l 61 635 l 257 635 l 257 838 l 172 838 b 226 1033 181 906 206 983 z "},"’":{"ha":318,"x_min":0,"x_max":0,"o":"m 207 635 b 257 888 224 678 257 772 l 257 1033 l 61 1033 l 61 831 l 146 831 b 92 635 138 763 113 685 z "},"“":{"ha":585,"x_min":0,"x_max":0,"o":"m 378 1033 b 328 781 361 990 328 896 l 328 635 l 524 635 l 524 838 l 439 838 b 493 1033 447 906 472 983 z m 111 1033 b 61 781 94 990 61 896 l 61 635 l 257 635 l 257 838 l 172 838 b 226 1033 181 906 206 983 z "},"”":{"ha":585,"x_min":0,"x_max":0,"o":"m 474 635 b 524 888 490 678 524 772 l 524 1033 l 328 1033 l 328 831 l 413 831 b 358 635 404 763 379 685 z m 207 635 b 257 888 224 678 257 772 l 257 1033 l 61 1033 l 61 831 l 146 831 b 92 635 138 763 113 685 z "},"A":{"ha":644,"x_min":0,"x_max":0,"o":"m 281 576 b 314 824 297 688 308 765 b 346 576 318 765 328 690 l 383 344 l 244 344 z m 439 0 l 617 0 l 432 1033 l 201 1033 l 28 0 l 190 0 l 219 190 l 408 190 z "}}}
